<svg id="svg" version="1.1" xmlns="http://www.w3.org/2000/svg" xmlns:xlink="http://www.w3.org/1999/xlink" width="400" height="400" viewBox="0, 0, 400,400"><g id="svgg"><path id="path0" d="M162.890 56.300 L 163.000 62.600 168.500 62.711 C 173.539 62.813,174.002 62.763,174.022 62.111 C 174.043 61.466,174.032 51.689,174.009 50.500 C 174.002 50.124,172.606 50.000,168.390 50.000 L 162.780 50.000 162.890 56.300 M199.754 63.375 C 199.633 63.691,199.594 66.200,199.667 68.950 L 199.800 73.950 193.200 74.124 C 189.570 74.220,184.063 74.314,180.962 74.333 C 176.441 74.361,175.225 74.488,174.821 74.975 C 174.364 75.526,174.564 99.036,175.031 99.550 C 175.105 99.633,177.649 99.697,180.683 99.694 C 187.608 99.687,187.200 99.304,187.200 105.800 C 187.200 109.560,187.055 111.220,186.700 111.506 C 186.408 111.742,181.270 112.030,174.353 112.199 L 162.505 112.489 162.212 124.144 C 162.051 130.555,161.836 135.935,161.736 136.100 C 161.401 136.649,150.394 136.458,150.208 135.900 C 150.117 135.625,149.897 130.090,149.721 123.600 L 149.400 111.800 143.200 111.899 C 139.790 111.953,134.300 112.043,131.000 112.099 L 125.000 112.200 124.800 106.200 L 124.600 100.200 112.400 100.200 L 100.200 100.200 100.084 105.200 C 99.913 112.633,99.345 112.000,106.184 112.000 C 109.531 112.000,112.055 112.165,112.196 112.393 C 112.329 112.609,112.475 121.007,112.519 131.055 L 112.600 149.323 118.326 149.235 C 125.942 149.116,125.200 147.733,125.200 162.049 L 125.200 174.000 137.186 174.000 C 151.483 174.000,150.119 173.248,149.930 181.027 C 149.824 185.387,149.907 186.433,150.370 186.610 C 150.909 186.817,154.240 186.883,168.200 186.965 L 174.200 187.000 174.200 180.800 L 174.200 174.600 168.300 174.489 L 162.400 174.379 162.400 155.416 C 162.400 137.706,162.446 136.440,163.100 136.237 C 163.485 136.117,166.090 136.060,168.890 136.110 L 173.980 136.200 174.090 130.600 L 174.200 125.000 199.200 124.719 C 212.950 124.564,224.425 124.513,224.700 124.606 C 225.068 124.730,225.200 126.254,225.200 130.387 C 225.200 133.474,225.335 136.004,225.500 136.010 C 226.184 136.032,235.832 136.044,236.200 136.023 C 236.457 136.009,236.600 131.885,236.600 124.500 C 236.600 117.296,236.451 112.890,236.200 112.706 C 235.980 112.544,233.235 112.409,230.100 112.406 L 224.400 112.400 224.400 93.600 L 224.400 74.800 218.774 74.800 C 211.154 74.800,211.600 75.199,211.600 68.386 L 211.600 62.800 205.787 62.800 C 201.103 62.800,199.932 62.912,199.754 63.375 M187.521 180.618 C 187.406 186.157,187.438 186.446,188.200 186.629 C 188.640 186.735,196.985 186.772,206.745 186.711 L 224.489 186.600 224.454 181.000 C 224.434 177.920,224.414 175.265,224.409 175.100 C 224.404 174.935,216.129 174.800,206.021 174.800 L 187.641 174.800 187.521 180.618 M263.171 187.900 C 263.154 188.065,263.166 190.631,263.196 193.601 C 263.226 196.572,263.137 199.298,262.998 199.660 C 262.766 200.265,259.306 200.301,218.873 200.113 C 194.743 200.001,163.795 200.042,150.100 200.203 L 125.200 200.496 125.195 205.548 C 125.186 213.072,125.838 212.400,118.553 212.400 L 112.400 212.400 112.400 218.400 L 112.400 224.400 130.800 224.400 L 149.200 224.400 149.200 218.624 C 149.200 214.454,149.338 212.762,149.697 212.540 C 149.970 212.371,167.205 212.113,187.997 211.966 C 234.627 211.637,234.672 211.637,243.000 211.947 L 249.800 212.200 249.910 218.300 L 250.021 224.400 256.010 224.400 L 262.000 224.400 262.000 218.449 C 262.000 210.820,260.642 211.540,274.758 211.683 C 284.160 211.777,286.431 211.698,286.596 211.267 C 286.708 210.974,286.800 208.414,286.800 205.577 L 286.800 200.420 280.500 200.310 L 274.200 200.200 274.090 193.900 L 273.980 187.600 268.590 187.600 C 265.625 187.600,263.187 187.735,263.171 187.900 M105.500 225.099 L 100.400 225.224 100.346 229.512 C 100.316 231.870,100.181 240.280,100.046 248.200 L 99.800 262.600 93.882 262.600 C 86.748 262.600,87.543 260.957,87.688 275.400 L 87.800 286.600 99.600 286.776 C 125.018 287.155,139.704 287.187,156.535 286.899 L 174.070 286.600 174.019 274.861 C 173.956 260.630,173.227 262.000,180.859 262.000 L 186.821 262.000 186.710 255.958 L 186.600 249.915 180.864 249.977 C 173.476 250.056,173.950 250.523,174.023 243.236 L 174.082 237.400 143.261 237.200 C 119.036 237.043,112.331 236.891,111.930 236.490 C 111.562 236.122,111.455 234.734,111.544 231.490 C 111.662 227.186,111.403 224.702,110.857 224.887 C 110.715 224.935,108.305 225.030,105.500 225.099 " stroke="none" fill="#83905a" fill-rule="evenodd"></path><path id="path1" d="M149.200 16.791 L 149.200 24.400 136.800 24.400 L 124.400 24.400 124.400 29.194 L 124.400 33.988 112.100 34.094 C 100.801 34.191,99.800 34.256,99.795 34.885 C 99.793 35.261,99.568 35.792,99.295 36.065 C 98.949 36.411,98.800 38.225,98.800 42.080 L 98.800 47.600 93.424 47.600 C 90.271 47.600,87.945 47.765,87.800 48.000 C 87.640 48.259,89.436 48.410,92.876 48.428 C 95.804 48.444,98.560 48.611,99.000 48.800 C 99.695 49.098,88.149 49.447,85.290 49.214 L 84.381 49.140 84.490 56.070 L 84.600 63.000 90.800 63.106 C 99.348 63.252,100.278 63.468,92.671 63.540 C 86.876 63.595,86.353 63.659,86.476 64.300 C 86.596 64.924,87.270 65.012,92.705 65.110 L 98.800 65.221 98.800 74.810 L 98.800 84.400 92.824 84.400 C 86.976 84.400,85.707 84.667,86.724 85.684 C 87.347 86.307,86.369 87.258,85.683 86.697 C 84.488 85.719,84.393 87.259,84.496 106.024 L 84.600 125.000 85.500 124.968 C 85.998 124.951,86.400 125.174,86.400 125.468 C 86.400 125.888,87.709 126.000,92.600 126.000 L 98.800 126.000 98.800 150.320 C 98.800 168.702,98.917 174.757,99.280 175.120 C 99.599 175.439,101.643 175.628,105.380 175.682 L 111.000 175.764 105.698 175.982 C 99.152 176.251,98.593 176.954,104.798 177.113 L 109.200 177.226 109.200 180.800 L 109.200 184.375 104.500 184.487 C 99.915 184.597,99.801 184.622,99.832 185.500 C 99.849 185.998,99.626 186.400,99.332 186.400 C 98.912 186.400,98.800 187.709,98.800 192.600 L 98.800 198.800 92.820 198.800 C 88.473 198.800,86.752 198.937,86.520 199.300 C 86.344 199.575,85.840 199.800,85.400 199.800 C 84.614 199.800,84.598 200.101,84.496 216.900 L 84.391 234.000 79.196 234.000 L 74.000 234.000 74.000 292.400 L 74.000 350.800 80.100 350.840 C 83.778 350.864,85.803 351.007,85.200 351.200 C 84.650 351.376,81.995 351.538,79.300 351.560 C 76.327 351.584,74.400 351.757,74.400 352.000 C 74.400 352.245,76.333 352.400,79.400 352.400 L 84.400 352.400 84.400 376.200 L 84.400 400.000 137.200 400.000 L 190.000 400.000 190.000 388.612 L 190.000 377.225 194.900 377.112 C 201.499 376.961,201.130 376.263,194.302 375.982 L 189.000 375.764 194.620 375.682 C 201.873 375.576,201.200 376.821,201.200 363.520 L 201.200 352.400 206.200 352.400 C 209.267 352.400,211.200 352.245,211.200 352.000 C 211.200 351.758,209.348 351.589,206.500 351.572 C 203.915 351.556,201.440 351.389,201.000 351.200 C 200.506 350.988,202.608 350.845,206.500 350.828 C 212.033 350.803,212.800 350.721,212.800 350.151 C 212.800 349.658,212.927 349.608,213.330 349.942 C 214.793 351.156,214.800 350.899,214.800 294.520 L 214.800 239.600 250.900 239.594 C 286.094 239.588,288.146 239.519,287.983 238.357 C 287.810 237.120,287.988 236.562,288.366 237.158 C 289.504 238.955,290.000 237.271,290.000 231.613 L 290.000 226.000 295.029 226.000 C 301.477 226.000,301.200 226.276,301.200 219.835 L 301.200 214.812 313.100 214.706 L 325.000 214.600 324.968 213.700 C 324.951 213.202,325.174 212.800,325.468 212.800 C 325.886 212.800,326.000 211.558,326.000 207.000 L 326.000 201.200 344.720 201.200 C 359.069 201.200,363.556 201.084,363.935 200.705 C 364.208 200.432,364.739 200.207,365.115 200.205 C 366.100 200.198,366.184 161.834,365.200 161.746 C 364.870 161.717,361.360 161.633,357.400 161.561 L 350.200 161.429 357.000 161.215 C 362.682 161.035,363.800 160.901,363.800 160.400 C 363.800 159.900,362.851 159.782,358.100 159.689 L 352.400 159.578 352.400 154.589 C 352.400 151.530,352.245 149.600,352.000 149.600 C 351.755 149.600,351.600 151.533,351.600 154.600 C 351.600 157.667,351.445 159.600,351.200 159.600 C 350.954 159.600,350.800 157.600,350.800 154.400 L 350.800 149.200 330.000 149.200 L 309.200 149.200 309.200 154.400 L 309.200 159.600 291.600 159.600 C 274.296 159.600,274.000 159.613,274.000 160.396 C 274.000 161.178,274.334 161.194,292.500 161.300 L 311.000 161.408 292.500 161.504 L 274.000 161.600 273.914 166.900 L 273.828 172.200 273.700 167.406 C 273.497 159.772,272.017 159.854,272.006 167.500 L 272.000 172.000 268.600 172.000 L 265.200 172.000 265.200 155.800 L 265.200 139.600 269.751 139.600 C 274.435 139.600,275.814 139.174,274.710 138.070 C 274.350 137.710,274.399 137.600,274.920 137.600 C 275.793 137.600,275.988 100.148,275.120 99.280 C 274.801 98.961,273.059 98.800,269.924 98.800 L 265.208 98.800 265.104 80.305 C 265.007 63.098,264.952 61.802,264.304 61.677 C 263.652 61.551,263.601 62.724,263.500 80.271 L 263.392 99.000 263.296 80.300 L 263.200 61.600 256.700 61.515 L 250.200 61.431 256.600 61.215 C 261.926 61.036,263.000 60.899,263.000 60.400 C 263.000 59.902,262.095 59.781,257.700 59.688 L 252.400 59.577 252.400 49.588 L 252.400 39.600 256.900 39.595 C 262.503 39.588,265.072 38.822,262.700 37.865 C 262.300 37.704,262.300 37.657,262.700 37.632 C 263.079 37.608,263.200 35.996,263.200 31.000 L 263.200 24.400 239.000 24.400 L 214.800 24.400 214.800 18.433 C 214.800 15.151,214.691 12.181,214.557 11.833 C 214.268 11.078,213.349 10.996,213.065 11.700 C 212.881 12.156,212.828 11.936,212.654 10.000 C 212.607 9.477,210.114 9.387,193.300 9.296 L 174.000 9.192 174.000 16.796 C 174.000 20.978,173.865 24.400,173.700 24.400 C 173.535 24.401,173.462 21.681,173.538 18.358 C 173.632 14.212,173.532 12.172,173.221 11.861 C 172.257 10.897,171.965 12.607,172.085 18.500 L 172.205 24.400 168.703 24.400 L 165.200 24.400 165.194 18.300 C 165.191 14.945,165.018 11.932,164.811 11.603 C 163.967 10.269,163.617 12.032,163.500 18.209 L 163.378 24.600 163.243 17.600 C 163.169 13.750,163.083 10.330,163.054 10.000 C 163.009 9.497,161.889 9.382,156.100 9.291 L 149.200 9.181 149.200 16.791 M147.600 17.600 C 147.600 20.800,147.754 22.800,148.000 22.800 C 148.246 22.800,148.400 20.800,148.400 17.600 C 148.400 14.400,148.246 12.400,148.000 12.400 C 147.754 12.400,147.600 14.400,147.600 17.600 M263.690 30.869 C 263.782 36.359,263.896 37.400,264.400 37.400 C 265.394 37.400,265.285 24.666,264.290 24.474 C 263.630 24.347,263.588 24.796,263.690 30.869 M251.600 49.600 C 251.600 56.000,251.456 59.600,251.200 59.600 C 250.944 59.600,250.800 56.000,250.800 49.600 C 250.800 43.200,250.944 39.600,251.200 39.600 C 251.456 39.600,251.600 43.200,251.600 49.600 M186.900 49.872 C 187.065 49.968,187.200 52.733,187.200 56.016 C 187.200 63.105,186.490 62.484,194.400 62.315 L 199.800 62.200 200.000 56.000 L 200.200 49.800 218.400 49.800 L 236.600 49.800 236.800 62.000 L 237.000 74.200 243.200 74.400 L 249.400 74.600 249.600 93.200 L 249.800 111.800 255.200 111.897 C 263.226 112.042,262.441 111.312,262.310 118.510 L 262.200 124.600 255.903 124.710 L 249.606 124.820 249.503 149.510 L 249.400 174.200 243.200 174.200 L 237.000 174.200 236.912 155.800 L 236.825 137.400 230.856 137.290 C 223.792 137.159,224.414 137.833,224.405 130.300 L 224.400 125.200 218.700 125.193 C 192.994 125.159,175.021 125.246,174.862 125.405 C 174.757 125.510,174.711 127.727,174.760 130.332 C 174.809 132.937,174.728 135.548,174.581 136.134 L 174.313 137.200 168.557 137.200 L 162.800 137.200 162.800 155.538 L 162.800 173.876 170.739 174.110 C 175.105 174.239,186.040 174.241,195.039 174.115 C 204.038 173.990,217.119 174.023,224.110 174.190 L 236.820 174.493 236.710 180.746 L 236.600 187.000 228.800 187.288 C 213.696 187.847,137.582 187.416,137.173 186.770 C 136.975 186.457,136.809 183.635,136.806 180.500 C 136.802 176.227,136.675 174.792,136.300 174.769 C 136.025 174.752,133.494 174.765,130.675 174.798 C 124.022 174.874,124.353 175.199,124.402 168.636 C 124.423 165.756,124.432 163.175,124.420 162.900 C 124.405 162.523,122.924 162.400,118.408 162.400 L 112.415 162.400 112.155 161.363 C 112.012 160.793,111.874 149.678,111.847 136.663 C 111.817 121.406,111.658 112.896,111.400 112.706 C 111.180 112.544,108.544 112.409,105.543 112.406 C 99.057 112.399,99.600 113.001,99.600 105.816 C 99.600 98.735,97.396 99.447,118.714 99.639 L 136.600 99.800 136.600 93.600 L 136.600 87.400 124.800 87.515 C 118.310 87.578,112.768 87.473,112.484 87.281 C 111.946 86.918,111.726 51.579,112.254 50.203 C 112.459 49.670,113.366 49.596,118.547 49.690 L 124.600 49.800 124.710 56.100 L 124.820 62.400 130.800 62.400 L 136.780 62.400 136.890 56.100 L 137.000 49.800 143.200 49.800 L 149.400 49.800 149.510 56.100 L 149.620 62.400 155.810 62.400 L 162.000 62.400 162.000 56.220 C 162.000 50.764,162.082 49.989,162.700 49.611 C 163.372 49.199,186.168 49.445,186.900 49.872 M149.867 87.467 C 149.466 87.867,149.558 110.914,149.963 111.553 C 150.255 112.014,152.241 112.060,161.857 111.828 C 173.220 111.553,174.983 111.420,174.637 110.860 C 174.505 110.646,173.939 90.389,173.990 87.700 C 174.001 87.159,150.403 86.931,149.867 87.467 M225.140 105.200 C 225.107 108.060,225.062 110.625,225.040 110.900 C 225.010 111.279,226.425 111.400,230.900 111.400 C 234.145 111.400,236.800 111.265,236.800 111.100 C 236.800 110.935,236.800 108.370,236.800 105.400 L 236.800 100.000 231.000 100.000 L 225.200 100.000 225.140 105.200 M276.209 100.433 C 275.800 101.498,276.179 136.795,276.600 136.900 C 277.144 137.036,277.358 100.798,276.817 100.257 C 276.563 100.003,276.350 100.064,276.209 100.433 M211.489 137.127 C 211.830 137.341,212.011 139.242,212.089 143.417 L 212.200 149.400 218.510 149.510 L 224.820 149.620 224.710 155.910 L 224.600 162.200 199.600 162.200 L 174.600 162.200 174.600 156.000 L 174.600 149.800 180.900 149.690 L 187.200 149.580 187.200 143.457 C 187.200 140.089,187.317 137.216,187.461 137.072 C 187.830 136.703,210.896 136.755,211.489 137.127 M263.499 164.127 C 263.435 168.567,263.383 164.820,263.383 155.800 C 263.383 146.780,263.435 143.147,263.500 147.727 C 263.564 152.307,263.564 159.687,263.499 164.127 M312.400 148.000 C 312.400 148.261,318.875 148.400,331.024 148.400 C 343.337 148.400,349.563 148.264,349.400 148.000 C 349.241 147.743,342.596 147.600,330.776 147.600 C 318.792 147.600,312.400 147.739,312.400 148.000 M349.400 174.800 L 349.400 187.000 324.700 187.103 L 300.000 187.206 300.000 193.603 L 300.000 200.000 293.849 200.000 L 287.698 200.000 287.403 212.230 C 287.196 220.766,286.970 224.502,286.653 224.597 C 285.698 224.884,250.576 225.161,250.134 224.885 C 249.823 224.691,249.623 222.598,249.534 218.597 L 249.400 212.600 206.600 212.490 C 183.060 212.430,163.440 212.467,163.000 212.572 C 162.245 212.754,162.200 213.095,162.200 218.682 L 162.200 224.600 154.600 224.862 C 150.420 225.005,139.260 225.129,129.800 225.137 L 112.600 225.151 112.600 230.675 L 112.600 236.200 143.489 236.302 L 174.378 236.405 174.489 230.702 L 174.600 225.000 187.200 225.000 L 199.800 225.000 199.800 256.000 L 199.800 287.000 185.400 287.246 C 151.950 287.816,87.734 287.643,87.184 286.981 C 86.664 286.355,86.898 250.812,87.428 249.955 C 87.548 249.760,90.337 249.600,93.624 249.600 L 99.600 249.600 99.657 244.500 C 99.688 241.695,99.823 233.280,99.957 225.800 L 100.200 212.200 105.728 212.152 C 112.510 212.092,112.092 212.510,112.152 205.728 L 112.200 200.200 135.000 199.914 C 147.540 199.756,181.200 199.666,209.800 199.714 L 261.800 199.800 261.911 193.828 C 262.051 186.318,261.603 186.800,268.435 186.800 C 275.222 186.800,274.856 186.393,274.776 193.845 C 274.705 200.474,274.250 200.046,281.231 199.911 L 287.000 199.800 287.097 194.400 C 287.242 186.402,286.499 187.200,293.797 187.200 L 299.980 187.200 300.090 180.900 L 300.200 174.600 312.500 174.494 L 324.800 174.388 324.800 168.661 C 324.800 165.511,324.923 162.811,325.072 162.661 C 325.222 162.511,330.757 162.436,337.372 162.494 L 349.400 162.600 349.400 174.800 M271.282 173.897 C 269.678 173.973,267.158 173.973,265.682 173.896 C 264.207 173.819,265.520 173.757,268.600 173.758 C 271.680 173.758,272.887 173.821,271.282 173.897 M72.205 237.272 C 71.526 240.081,72.204 349.390,72.901 349.524 C 73.802 349.697,73.815 236.805,72.915 236.505 C 72.648 236.416,72.329 236.761,72.205 237.272 M140.902 300.399 L 149.605 300.400 149.502 331.500 L 149.400 362.600 143.306 362.710 L 137.212 362.821 137.106 374.710 L 137.000 386.600 124.861 386.800 C 118.184 386.910,112.531 386.882,112.298 386.738 C 112.027 386.570,111.907 384.518,111.965 381.012 C 112.081 374.003,112.454 374.400,105.751 374.400 L 100.400 374.400 100.408 366.500 C 100.413 362.155,100.206 350.680,99.947 341.000 C 99.661 330.256,99.597 318.925,99.784 311.911 L 100.091 300.421 105.745 300.268 C 108.855 300.184,116.080 300.178,121.800 300.256 C 127.520 300.335,136.116 300.399,140.902 300.399 " stroke="none" fill="#132c4b" fill-rule="evenodd"></path><path id="path2" d="M162.700 49.632 C 161.892 50.103,161.603 62.400,162.400 62.400 C 162.649 62.400,162.800 60.067,162.800 56.200 L 162.800 50.000 168.624 50.000 C 172.404 50.000,174.360 49.860,174.200 49.600 C 173.872 49.070,163.616 49.099,162.700 49.632 M112.254 50.203 C 111.726 51.579,111.946 86.919,112.484 87.261 C 113.270 87.759,124.400 87.685,124.400 87.182 C 124.400 86.907,122.377 86.784,118.500 86.822 L 112.600 86.882 112.600 80.833 L 112.600 74.785 124.400 74.570 C 130.890 74.452,136.330 74.227,136.488 74.070 C 136.647 73.913,136.827 71.267,136.888 68.192 L 137.000 62.600 143.310 62.490 L 149.620 62.380 149.510 56.090 L 149.400 49.800 143.200 49.800 L 137.000 49.800 136.890 56.100 L 136.780 62.400 130.800 62.400 L 124.820 62.400 124.710 56.100 L 124.600 49.800 118.547 49.690 C 113.366 49.596,112.459 49.670,112.254 50.203 M200.193 50.096 C 200.091 50.373,199.961 53.210,199.904 56.400 L 199.800 62.200 193.719 62.200 C 190.375 62.200,187.777 62.338,187.946 62.507 C 188.115 62.676,193.507 62.813,199.927 62.813 L 211.600 62.812 211.600 68.392 C 211.600 75.198,211.155 74.800,218.774 74.800 L 224.400 74.800 224.400 93.600 L 224.400 112.400 230.100 112.406 C 233.235 112.409,235.980 112.544,236.200 112.706 C 236.451 112.890,236.600 117.296,236.600 124.500 C 236.600 131.885,236.457 136.009,236.200 136.023 C 235.832 136.044,226.184 136.032,225.500 136.010 C 225.335 136.004,225.200 133.474,225.200 130.387 C 225.200 126.254,225.068 124.730,224.700 124.606 C 224.425 124.513,212.950 124.564,199.200 124.719 L 174.200 125.000 174.090 130.600 L 173.980 136.200 168.890 136.110 C 166.090 136.060,163.485 136.117,163.100 136.237 C 162.446 136.440,162.400 137.706,162.400 155.407 L 162.400 174.360 168.401 174.480 C 171.701 174.546,174.401 174.465,174.401 174.300 C 174.400 174.135,171.790 174.000,168.600 174.000 L 162.800 174.000 162.800 155.600 L 162.800 137.200 168.557 137.200 L 174.313 137.200 174.581 136.134 C 174.728 135.548,174.809 132.937,174.760 130.332 C 174.711 127.727,174.757 125.510,174.862 125.405 C 175.021 125.246,192.994 125.159,218.700 125.193 L 224.400 125.200 224.405 130.300 C 224.414 137.833,223.792 137.159,230.856 137.290 L 236.825 137.400 236.912 155.800 L 237.000 174.200 243.200 174.200 L 249.400 174.200 249.503 149.510 L 249.606 124.820 255.903 124.710 L 262.200 124.600 262.310 118.510 C 262.441 111.312,263.226 112.042,255.200 111.897 L 249.800 111.800 249.600 93.200 L 249.400 74.600 243.200 74.400 L 237.000 74.200 236.800 62.000 L 236.600 49.800 218.489 49.696 C 204.211 49.614,200.339 49.699,200.193 50.096 M149.877 74.657 C 149.725 74.809,149.600 77.738,149.599 81.167 L 149.599 87.400 156.099 87.283 L 162.600 87.166 162.400 80.883 L 162.200 74.600 156.177 74.490 C 152.864 74.429,150.029 74.504,149.877 74.657 M174.203 98.886 C 174.344 105.314,174.535 110.695,174.627 110.844 C 174.980 111.415,173.352 111.600,167.991 111.600 C 164.324 111.600,162.353 111.752,162.170 112.049 C 161.806 112.637,185.964 112.103,186.700 111.507 C 187.054 111.220,187.200 109.559,187.200 105.800 C 187.200 99.330,187.563 99.688,181.000 99.670 C 178.140 99.662,175.575 99.643,175.300 99.628 C 174.923 99.607,174.800 98.078,174.800 93.400 C 174.800 89.272,174.657 87.200,174.373 87.200 C 174.074 87.200,174.023 90.709,174.203 98.886 M136.799 93.681 C 136.689 97.136,136.740 99.822,136.911 99.650 C 137.082 99.478,137.172 96.652,137.110 93.369 L 136.997 87.400 136.799 93.681 M100.080 100.080 C 99.575 100.585,99.373 110.542,99.843 111.767 C 100.048 112.301,100.939 112.401,105.543 112.406 C 108.544 112.409,111.180 112.544,111.400 112.706 C 111.658 112.896,111.817 121.406,111.847 136.663 C 111.874 149.678,112.012 160.793,112.155 161.363 L 112.415 162.400 118.408 162.400 C 122.924 162.400,124.405 162.523,124.420 162.900 C 124.432 163.175,124.423 165.756,124.402 168.636 C 124.353 175.199,124.022 174.874,130.675 174.798 C 133.494 174.765,136.025 174.752,136.300 174.769 C 136.675 174.792,136.802 176.227,136.806 180.500 C 136.809 183.635,136.956 186.427,137.132 186.704 C 137.379 187.092,141.783 187.266,156.226 187.460 C 166.552 187.598,174.889 187.590,174.753 187.441 C 174.512 187.179,167.444 186.962,156.375 186.875 C 149.146 186.818,149.776 187.390,149.930 181.027 C 150.119 173.248,151.483 174.000,137.186 174.000 L 125.200 174.000 125.200 162.049 C 125.200 147.733,125.942 149.116,118.326 149.235 L 112.600 149.323 112.519 131.055 C 112.475 121.007,112.329 112.609,112.196 112.393 C 112.055 112.165,109.531 112.000,106.184 112.000 C 99.345 112.000,99.913 112.633,100.084 105.200 L 100.200 100.200 112.500 100.200 C 119.265 100.200,124.800 100.065,124.800 99.900 C 124.800 99.363,100.621 99.539,100.080 100.080 M236.800 105.400 C 236.800 108.370,236.800 110.935,236.800 111.100 C 236.800 111.265,234.145 111.400,230.900 111.400 C 226.425 111.400,225.010 111.279,225.040 110.900 C 225.062 110.625,225.107 108.060,225.140 105.200 L 225.200 100.000 231.000 100.000 L 236.800 100.000 236.800 105.400 M200.090 143.100 L 200.200 149.400 206.200 149.510 L 212.200 149.621 212.079 143.521 C 211.935 136.243,212.495 136.814,205.490 136.806 L 199.980 136.800 200.090 143.100 M174.576 150.118 C 174.467 150.404,174.427 153.239,174.489 156.418 L 174.600 162.200 181.000 162.310 L 187.400 162.420 187.281 156.010 L 187.162 149.600 180.968 149.600 C 176.265 149.600,174.727 149.725,174.576 150.118 M325.072 162.661 C 324.923 162.811,324.800 165.511,324.800 168.661 L 324.800 174.388 312.500 174.494 L 300.200 174.600 300.090 180.900 L 299.980 187.200 293.797 187.200 C 286.499 187.200,287.242 186.402,287.097 194.400 L 287.000 199.800 281.231 199.911 C 274.250 200.046,274.705 200.474,274.776 193.845 C 274.856 186.393,275.222 186.800,268.435 186.800 C 261.603 186.800,262.051 186.318,261.911 193.828 L 261.800 199.800 209.800 199.714 C 181.200 199.666,147.540 199.756,135.000 199.914 L 112.200 200.200 112.152 205.728 C 112.092 212.510,112.510 212.092,105.728 212.152 L 100.200 212.200 99.957 225.800 C 99.823 233.280,99.688 241.695,99.657 244.500 L 99.600 249.600 93.624 249.600 C 90.337 249.600,87.548 249.760,87.428 249.955 C 86.898 250.812,86.664 286.355,87.184 286.981 C 87.734 287.643,151.950 287.816,185.400 287.246 L 199.800 287.000 199.800 256.000 L 199.800 225.000 187.200 225.000 L 174.600 225.000 174.489 230.702 L 174.378 236.405 143.489 236.302 L 112.600 236.200 112.600 230.675 L 112.600 225.151 129.800 225.137 C 139.260 225.129,150.420 225.005,154.600 224.862 L 162.200 224.600 162.200 218.682 C 162.200 213.095,162.245 212.754,163.000 212.572 C 163.440 212.467,183.060 212.430,206.600 212.490 L 249.400 212.600 249.534 218.597 C 249.623 222.598,249.823 224.691,250.134 224.885 C 250.576 225.161,285.698 224.884,286.653 224.597 C 286.970 224.502,287.196 220.766,287.403 212.230 L 287.698 200.000 293.849 200.000 L 300.000 200.000 300.000 193.603 L 300.000 187.206 324.700 187.103 L 349.400 187.000 349.400 174.800 L 349.400 162.600 337.372 162.494 C 330.757 162.436,325.222 162.511,325.072 162.661 M187.376 174.519 C 187.266 174.805,187.232 177.550,187.300 180.619 L 187.425 186.200 187.512 180.500 L 187.600 174.800 206.000 174.800 C 216.120 174.800,224.404 174.935,224.409 175.100 C 224.414 175.265,224.434 177.920,224.453 181.000 L 224.489 186.600 205.944 186.681 C 195.745 186.726,187.310 186.906,187.200 187.081 C 186.932 187.509,217.647 187.671,228.200 187.297 L 236.600 187.000 236.710 180.764 L 236.820 174.528 227.510 174.265 C 210.558 173.786,187.601 173.931,187.376 174.519 M274.090 193.900 L 274.200 200.200 280.500 200.310 L 286.800 200.420 286.800 205.577 C 286.800 208.414,286.708 210.974,286.596 211.267 C 286.431 211.698,284.160 211.777,274.758 211.683 C 260.642 211.540,262.000 210.820,262.000 218.449 L 262.000 224.400 256.010 224.400 L 250.021 224.400 249.910 218.300 L 249.800 212.200 243.000 211.947 C 234.672 211.637,234.627 211.637,187.997 211.966 C 167.205 212.113,149.970 212.371,149.697 212.540 C 149.338 212.762,149.200 214.454,149.200 218.624 L 149.200 224.400 130.800 224.400 L 112.400 224.400 112.400 218.400 L 112.400 212.400 118.553 212.400 C 125.838 212.400,125.186 213.072,125.195 205.548 L 125.200 200.496 150.100 200.203 C 163.795 200.042,194.743 200.001,218.873 200.113 C 259.306 200.301,262.766 200.265,262.998 199.660 C 263.137 199.298,263.226 196.572,263.196 193.601 C 263.166 190.631,263.154 188.065,263.171 187.900 C 263.187 187.735,265.625 187.600,268.590 187.600 L 273.980 187.600 274.090 193.900 M111.390 225.900 C 111.542 226.505,111.612 229.021,111.544 231.490 C 111.455 234.734,111.562 236.122,111.930 236.490 C 112.331 236.891,119.036 237.043,143.261 237.200 L 174.082 237.400 174.023 243.236 C 173.950 250.523,173.476 250.056,180.864 249.977 L 186.600 249.915 186.710 255.958 L 186.821 262.000 180.859 262.000 C 173.227 262.000,173.956 260.630,174.019 274.861 L 174.070 286.600 156.535 286.899 C 139.704 287.187,125.018 287.155,99.600 286.776 L 87.800 286.600 87.688 275.400 C 87.543 260.957,86.748 262.600,93.882 262.600 L 99.800 262.600 100.046 248.200 C 100.181 240.280,100.316 231.870,100.346 229.512 L 100.400 225.224 105.500 225.099 C 108.305 225.030,110.715 224.935,110.857 224.887 C 110.998 224.839,111.238 225.295,111.390 225.900 " stroke="none" fill="#435c53" fill-rule="evenodd"></path><path id="path3" d="M105.745 300.268 L 100.091 300.421 99.784 311.911 C 99.597 318.925,99.661 330.256,99.947 341.000 C 100.206 350.680,100.413 362.155,100.408 366.500 L 100.400 374.400 105.751 374.400 C 112.454 374.400,112.081 374.003,111.965 381.012 C 111.907 384.518,112.027 386.570,112.298 386.738 C 112.531 386.882,118.184 386.910,124.861 386.800 L 137.000 386.600 137.106 374.710 L 137.212 362.821 143.306 362.710 L 149.400 362.600 149.502 331.500 L 149.605 300.400 140.902 300.399 C 136.116 300.399,127.520 300.335,121.800 300.256 C 116.080 300.178,108.855 300.184,105.745 300.268 " stroke="none" fill="#078382" fill-rule="evenodd"></path><path id="path4" d="M174.243 49.930 C 174.124 50.123,174.031 52.782,174.036 55.840 C 174.042 58.898,174.036 61.705,174.023 62.077 C 174.002 62.705,172.638 62.749,155.500 62.677 L 137.000 62.600 136.888 68.192 C 136.827 71.267,136.647 73.913,136.488 74.070 C 136.330 74.227,130.890 74.452,124.400 74.570 L 112.600 74.785 112.600 80.770 L 112.600 86.755 124.200 86.997 C 130.580 87.131,136.120 87.335,136.510 87.450 C 137.157 87.642,137.211 88.206,137.110 93.730 L 137.000 99.800 130.890 99.910 L 124.779 100.021 124.890 106.110 L 125.000 112.200 130.800 112.109 C 133.990 112.059,139.480 111.879,143.000 111.709 L 149.400 111.400 149.600 93.000 L 149.800 74.600 156.000 74.600 L 162.200 74.600 162.400 80.800 L 162.600 87.000 168.500 87.111 C 173.069 87.196,174.405 87.106,174.420 86.711 C 174.432 86.430,174.423 83.799,174.401 80.865 C 174.349 73.976,173.947 74.376,180.962 74.333 C 195.014 74.246,200.078 73.979,199.832 73.340 C 199.705 73.007,199.600 70.499,199.600 67.767 L 199.600 62.800 193.849 62.800 C 186.772 62.800,187.251 63.300,187.111 55.772 L 187.000 49.800 180.730 49.690 C 177.281 49.629,174.362 49.738,174.243 49.930 M149.779 123.900 C 149.938 130.445,150.202 135.940,150.365 136.112 C 150.529 136.283,153.169 136.373,156.232 136.312 L 161.800 136.200 162.153 124.727 C 162.593 110.450,163.371 112.000,155.758 112.000 L 149.490 112.000 149.779 123.900 M187.385 137.294 C 187.277 137.577,187.236 143.296,187.294 150.004 L 187.400 162.200 206.000 162.200 L 224.600 162.200 224.710 155.906 L 224.820 149.612 212.510 149.506 L 200.200 149.400 200.000 143.200 L 199.800 137.000 193.691 136.890 C 189.000 136.805,187.537 136.898,187.385 137.294 M174.400 180.810 L 174.400 187.220 180.700 187.110 L 187.000 187.000 187.110 180.700 L 187.220 174.400 180.810 174.400 L 174.400 174.400 174.400 180.810 " stroke="none" fill="#8a2f06" fill-rule="evenodd"></path></g></svg>